<mxfile host="www.draw.io" modified="2020-02-17T15:20:22.039Z" agent="Mozilla/5.0 (Windows NT 10.0; Win64; x64) AppleWebKit/537.36 (KHTML, like Gecko) Chrome/80.0.3987.106 Safari/537.36" etag="v26j6Q85AbxMaGsb7Qqg" version="12.7.0" type="github">
  <diagram id="EVvgx_WftwRBrEdP2ruJ" name="第1頁">
    <mxGraphModel dx="1550" dy="836" grid="1" gridSize="10" guides="1" tooltips="1" connect="1" arrows="1" fold="1" page="1" pageScale="1" pageWidth="1169" pageHeight="827" math="0" shadow="0" extFonts="Noto Sans TC^https://fonts.googleapis.com/css?family=Noto+Sans+TC">
      <root>
        <mxCell id="0"/>
        <mxCell id="1" parent="0"/>
        <mxCell id="jjY2oKexfYFmj5Fb0YtB-17" value="" style="shape=image;verticalLabelPosition=bottom;labelBackgroundColor=#ffffff;verticalAlign=top;aspect=fixed;imageAspect=0;image=data:image/png,iVBORw0KGgoAAAANSUhEUgAABCIAAAD4CAYAAAA5O0cJAAAgAElEQVR4Ae29a3Nc53mm618yPyFTKU/Nh+TDTmVSNUmV4/mQWlW7OuY2hjFsjlBK0UqIyETkEUYJJmPLMrFtC0oIa7RhjyjLgixBNtmyDUYyKJmmobYQiKIokaBEgiIA4kSwcWo0eO961qF79epzo7vRh4tVi+hevQ7vut57dfdz9/M+72fUwH8bS1d0+/1XdP3SaV27+DQLDNAAGkADaAANoAE0gAbQABpAA2gADbSJBiyWt5jeYvt6/vtMPQ8WHOvBflp3rp7V7fdf1sZCQqnkLaW3F1hggAbQABpAA2gADaABNIAG0AAaQANooE00YLG8xfQW21uMb7F+Pf41xIiwBt6dm0RcbSIuTCJMMjSABtAAGkADaAANoAE0gAbQABoopQGL8S3Wr8e/uhsR3nCMlzEhMCHQABpAA2gADaABNIAG0AAaQANoAA10kAbcUQ91GKZRdyPCHT+ykEBsHSS2Uq4Yr+GaogE0gAbQABpAA2gADaABNIAGukMD3jCNVw6cFFF3I8KKWVATojtEyJsN/YwG0AAaQANoAA2gATSABtAAGugeDVisbzH/Qf/V3Yiw2TEQYvcIkb6mr9EAGkADaAANoAE0gAbQABpAA92jAYv5D/oPI4IhFBhHaAANoAE0gAbQABpAA2gADaABNIAGKtIARgRCqUgouJPd407S1/Q1GkADaAANoAE0gAbQABpAA43UAEYERgRGBBpAA2gADaABNIAG0AAaQANoAA2ggaZpACMCsTVNbI101Dg2ji0aQANoAA2gATSABtAAGkADaKA9NIARgRGBEYEG0AAaQANoAA2gATSABtAAGkADaKBpGsCIQGxNExvuZHu4k/QT/YQG0AAaQANoAA2gATSABtBAIzXQcUbEhZnL+t5rv9Y3f3xBf/f9X7b88pff+tmht/EbL065zKZmLmNKYEyhATSABtAAGkADaAANoIEaNPDqB/9HJ84f15fjf6XPvfw5ljoy+PxPPg/POvI8qD6/Ev8rV+uvfvB8ze8VHWVEWCD9jy/8Sl8bm9LJ5y+2xfKnj73UEu382g+mXHZm5DTS+eLYOKtoAA2gATSABtAAGkADnaYBC8i+eO6InAlHX4h/gaXODCxwhmtr6cp5zXE1bwZcLfdzRxkRlglhAXW7mBDWzlYxIqwtZuB877W3axJSLeJjH76EoAE0gAbQABpAA2gADXSCBiwTwgIzguXGBMsYEY3helC9mvF24l+P1xQ/dpQRYUMM2smEaDUjwtrzjR9fqElInfABwjXwRQgNoAE0gAbQABpAA2igFg1YqvpBgzr2Lx5sY0QUZ3PYuvly/Es1xY8dZURYTQiMiIMNSTGGtbz5sg8f2mgADaABNIAG0AAaQAPdqgEC5cYGyvBtLN+DmBnWN7Xc9xgRh1xLopWGZpiJgxHBF4ha3kjYB92gATSABtAAGkAD3awBAuXGBsrV8R3Q6U/e1e3tTaUeKPMvtXtbl289r6FfNbatBwnq23FfjIjtBTeIJiOCjIhu/hDk2vkSiAbQABpAA2gADaCB5mugukCZQLjagLtivu/8TB/tZLyHwg/2buuty19lKE2dCopiRGBE1GVYChkRzf/g4ssCzNEAGkADaAANoAE00N4aqDhQ9oO/N5LhGHlTl69gTpQyJyri+84bur0f5lri8f663r2KGVGKeaWvYURUYURM/tvH2kttaWc7qRffvpoTwI/+8rLW728UfM2yLRZW19zFHtu+dowH6e285bcf3s45brFMjUqHZhQ6l7UlfNyg7YXaY+sqaRNGRHt/CPIlhv5DA2gADaABNIAG0EDzNVBRoBz6Bbo+RsTzurznBdu35yszMtzzJt8ong1w5bI2VV9j5PmVTWnvsp4PXX+lQW6wXXm+39Rvt0oYD4Ve2r2s58sO06g/43rwCLi0wl+MiCqMiI9u33UNBDMj7HGxYD76mm1XyIiIBviB0VFo//C57HElRoQd34yE6PGsLWEzJTAiotvZeYJjRNsabQ9GRPM/uPiyAHM0gAbQABpAA2gADbS3BsoHyrlGQV2MCN802DQzosJAv1ONiK9+/LFSBcyGjEHjssrfYOnToeKmjBknDWCMEeHd611XrDIcrFsgb9kPti4IyIPXk1tJN2vCTIXgNftbiRFh21nAb0ZHdP/wsexxOSMiyIQoZiCEryFoeyEjItr2aDuC5xgR7f0hyJcY+g8NoAE0gAbQABpAA83XwGEYEZmAdv62VGEWQ2caEV9VrrGTNRzKGRHaeVdPl8jUaATjzDFLnLcVMh0qbQMZERVmRIQNgvDjIBAPB/PhID94vVIjInycYN9Cf8sZEWYqRM2S8HHM6LCsCPtb6pzBa9b+8P7RxxgRzf/g4ssCzNEAGkADaAANoAE00N4aKGVEFAuSs+FyoUflhke8Idd+WHleX4iHH5fIvNi7rMtWmyI8NCOSKXB7pfTQDLuWzZXL7rmt1RboFzI3wusKBd65TMpd6xdUiu8X4tnhEy7J9G29e/stvXX7Lb0y6/P47fP6hb8ut5jlbb1R1BAIcw0/ro6xe/2ZLr6ty2WHqnjnCnYJeAemSqE+cE0D15AK9rJ+Mm34bfUzO3JqkeSs887p9X/2GME5M8cJjhf6ixFRoRERNheC4DycQRBeF2QjhF+v1IiwAD+8bTTgD56XMyLKHSPc3vDj4PjB30KmS/Ba+C9GRHt/CPIlhv5DA2gADaABNIAG0EDzNVAqUM4NurNBXulHZYLzSBZEoWDfC4CzgXYmIM4YEdHgOgiAi5/bu5bc1911mWN6gW94XW7bfNMgvH3kWgoFvaX4BkZMhmeZYSq5/ZHlk3feSLtyr8O7zrKMI8f4gvu81FCaKJ+syRKYAoX6wGtHqF98gyljRuSYDoXMiQJ9H217yHwIs8KIqMCICIyF8DAHMxlK1VmIBvBhY6DQ8cJBfXjb8Prw40qMiLAREt7XHofNh+BxoWKVlQwTseNhRDT/g4svCzBHA2gADaABNIAG0EB7a6BUoJwb+GbC5TIPQkFlgQAwHOi7QaEfeAbBahCcZ59b8Jkb5BYKrL1Aufi53fNGAv28tsRzsyRyzuO2Mz/4L3SMaLAbfp77OBusu1DrlBGR16aqGXvtypgBfj8WYpi5Hjf4j/CJnDd//8Lnyece6Vf3uMG6qCmVbyhl2hjRI0ZEBUaEmQph08ECbxvSYEF6YE4EwXw4+DdDIRgeETYXmmVE2DmjBkTwPNze8OPgdbuuSmfMsH0wItr7Q5AvMfQfGkADaAANoAE0gAaar4HmGhFe0FjKZAiKLOak4kcMgrxA2wLMnODU/+U8FHgW2qfcupyAOMgIKGTDhLMkQue0ALgU3y/Ev6pfbBQ6oDd0xA2g/WA+b6uiNSLqwbjQMb6gHB6R6yz8Wu5x8nnnvp4xDNxr9k2NQv2as67wMQq3J1cXGBFljIggSC+ULWDrgmA/2C5sRASGg62r1IgIjhMYHIExEP1bLiPCzhmYINF97XklNSLsGJWaERgRzf/g4ssCzNEAGkADaAANoAE00N4aKB0o5wZuFii6wWQmKg5+lc7fLhNUhgJWNzjM7Bt9UCLwDM7rB/z5AW3jjQiv7ZFf/EPXVuh6bV05vvWeNaM+jKsP7gsH/rnHye+33NczDMPZFTmmg6+znHWFj1G4Pbk6xYgoY0REMx/CQb0F6sHQhcBAsHWFtrGMisC0CAyKQmaDrYtmX4SPFzwuZ0SUOocdw9oSGBXF2h6sr6Q9GBHt/SHIlxj6Dw2gATSABtAAGkADzddAuUA5Exz6QXftRkTu8Iqc47qBZVCksFBgmbtvwSCzTF2A/CA4dxiG154S5ylz/JzrCRkU5fl+U7/dipoyZZ7bEJNf5QbVhdqf06aqGBceMuEyjAxvyZwjbB4E1++fM8iAye+DwufJ6d8c08G/5py+8PRScBhJiUwVazdGRBkjolRmQWBS2DZB0B41IoL14eyJYiZB+HiB4VDsbzkjwvYLhldE22QmRNhcCNoY3c6OUWmbMCKa/8HFlwWYowE0gAbQABpAA2igvTVQPlDODXhrNiIKBZRBwBrUgPCDXDcQVTb7wHsenjUjGnx6z0tNBZofBPtDDcLTh7oBbvY8OQFxpI1eAB5tRy6rINjNBOuZ641s984bur1fxnwIXn6wrstXv5qdVSJ8zHoyzgn2v6C6FauMmANe34Yya3zzImss+H2b2c83izL9VqDvo20PMwo9xogoYUQEhkGhAD0wCILMgrPvzLkZBoW2DYL5aEZEoeEehbIkgnOF/1ZiRNj2gckQPlfQjuB4wTaF2m7b2PblhmhgRLT3hyBfYug/NIAG0AAaQANoAA00XwPNMiJK/ppuwWEkeMyYDxaAF5q+05/6M4jPK5m+M2f6Tz8gzTFWkm/kTOmZa0SYeRAEwcFZgyyOiLEQCXbLGhG2/Ts/U+70nNlzZB7t3dZbl4uYEMHwlWIZC7UwDowZtwH1mb6zUB9kTA7/QrMmhM/VNye8lzd1eT48VatnRORO3xkyNkJ9Ee0HjIgSRkQQqLfi30qNiGa1HSOi+R9cfFmAORpAA2gADaABNIAG2lsDzTIiokFgtzyvju+ATn/yrm5vbyr1IGM/KLV7W5dvPa+hgsMxipsgh8/YTILKTIHa2+obEfPVc8CIwIjIqWlRq3GBEdHeH4J8iaH/0AAaQANoAA2gATTQfA1UFyhXH+zVHmB2xrm6hm8ko8X6vWwWTIlshcp1gxHhWlbXLj6tWt5ALYiuNQA/rP3IiGj+B0Ut2mIf+gkNoAE0gAbQABpAA2igmAa6JlCuS9BbvTnSTXxzhtNYdFxqmEjd+gMjAiPi+YuHaqaQEcEHbLEPWNajDTSABtAAGkADaAANFNZANwXKlf/KXr3hUOzY8K0fy2KMa11vfVPL+4IlHxz032cOeoDo/rVmRHzjxxcONYivJaui1TIivvHiVE1CqkV87FP4gwwucEEDaAANoAE0gAbQQHtp4MvxLxWegaFuv1i3biBaawBbzX4YEa3b/1+J/1VN8WNHGRHfe+3X+trYVFuZEa1kRHztB1MyhnzwtdcHH/1Ff6EBNIAG0AAaQANo4HA1cOL8cTkTDmZEg4wXjIjWNCKc1xyZ9mt5/+koI+LCzGX94wu/kgXUtWQnHMY+rWJEmIFj7KZmLtckpFrExz6H+4EJf/ijATSABtAAGkADaKA+Gnj1g/+jL547IgvMqvmln20rC7AxIirj1Ew9mfFmmn/1g+drih87yoiwN1ILpO1XfRtiYPUOguXLT00oWIJ1rfD3L7/1s0wbD6s9NqTle6+9LTNy+DCqz4cRHOGIBtAAGkADaAANoIHu0sCrV553fx22VHULnFnqx+DzP/k8PFtIUzYUyTIhzICr9X2u44yIYiCmp6cVLMW2YX13fVjQ3/Q3GkADaAANoAE0gAbQABpAA2ig+RrAiNhuPnSEDnM0gAbQABpAA2gADaABNIAG0AAa6FYNYERgRNScTtOtNw3XzQcGGkADaAANoAE0gAbQABpAA2igdg1gRGBEYESgATSABtAAGkADaAANoAE0gAbQABpomgYwIhBb08SGY1i7Ywg72KEBNIAG0AAaQANoAA2gATTQKRrAiMCIwIhAA2gADaABNIAG0AAaQANoAA2gATTQNA1gRBxQbHtbd8TSfQw6xYnkOnDV0QAaQANoAA2gATSABtAAGmi2BjAiDmBEYEB0nwER9Hmzb1TOx4cDGkADaAANoAE0gAbQABpAA52iAYyICo2IIADN+bu9oD2W7mNQIgumU94YuA4+5NAAGkADaAANoAE0gAbQABpolAYwImoxIgLzYWtBe8ESrONvZxoTQT/b32gfh4yJRt2oHJcPATSABtAAGkADaAANoAE0gAY6RQMYEUWMiJzMhyDQDALQUDCa2lqQLbubd9wleM5fj0sncIj2rWtEFDImAp1s3WlakZdOeSPiOvhQRQNoAA2gATSABtAAGkAD3aMBjIhKjIiIAREYD8FfN1DdWtDOpr8kF7QTXjYXtcPSPgxy+s7r013fbAqMFetze5zJjsh5jBHBh0j3fIjQ1/Q1GkADaAANoAE0gAbQQLUawIiIGBE5mRClDIjAeLCgdXNR28kFbft/t5ILYukMBuF+dc0kt78XFDUmMlkSphkyI8gIibyvVPvGzPZ8mKMBNIAG0AAaQANoAA10sgYwIiIBQyaIdAPKBW3dv6v19RXdXV7W8sqq7q6saunuipaWV91lcXlVC3e95c7dFd25u6pPl7zFHoefB+v5m2XUaiyCPgv6zXu+kulj6++g700Hpoe7y6aPFa2srmplZdX76z5e0erqKgsM0AAaQANoAA2gATSABtAAGugADazo3vqKtpN3D/zDI0aEb0RkDIjg1+ztRRfyvXvr2tra1t7envb20kr5y04qre3UnrZ209rc3fOXtO7v7Cm5s+f+tcf3d2xdWhvbeyxtwCDor3A/Wn8GfWz9bf1u/R9oYS+dVtpfHjzY14P9fXl/03qw7y16sC8WGKABNIAG0AAaQANoAA2gATTQrhqw2GZ3Z0f3N9a1cW9F6e3Fmg0JjIhCRsT2gmtCJJP3vQBzf1976X038IwaEBakmslwz5atPa1v7WnNlk1vWd1MyVv2tLoZXYLX+Jvl1EwW0f6w59753f7z+9P61frX+jkwJQJDYteMqfS+a1Kl9/ddveSYEa4xkcaEwIhBA2gADaABNIAG0AAaQANooGM0sLV53zcjahtCgxERNSK2veEYlgnh/sodMiEs6NxOeRkQ9ou5BadmPFjwurKZ0nIypbu23E9p6X5Ki8GysatFW4Ln/G1NFqF+sv6zfrT+tH61/rV+tv62frf+tywJMyRcM2Iv7ZpVBc0IPyvCHMR2dT9pN849GkADaAANoAE0gAbQABpAA2ENWGZErcM0MCLCRoRfF8JqQthwDDMiguEYlglhQWeQAWFZD5bhsJzcc02HhY2U7myk9Om9Xc2ve8uttV3dWvcXe8zS+gysv9ayfXh7fdftV+tfMyesvwNDIsiQMF0EQzVML6WGaYRvXB7zRo4G0AAaQANoAA2gATSABtBAu2rAhmlYzYhaimp2vRGRUxvCNyKWV1ayNSHS++4v3hZsBlkQFojar+SW5WDGw+31lBu8frK2q49Xd3VjZUfXl3c05/+9dndH7rK8o2vLO/roLksrMbA+cZe7uf02t7zj9qX1a2BOmNlk/W79bzoIsiMymRE2TMOvF7Ef1Irwh2eQEcGHTLt+yNButIsG0AAaQANoAA2gATQQ1YDFN6urGBElnZjp6WkFS9ixyRgRvglh0zDaDAiWYm/FCL2aEGETIpsBYZkPN9d2dWN11zUaPry7ratLO/pgaVdXFnf0vi0L3nJ5YUcsrc/A7a/FHbf/rB8/WNqR9asZS9bP1t9mPAUZEpYVY2aEZcpkzAjLitjfV8aICAwJhmYwNIVxkWgADaABNIAG0AAaQANooIM0YLMEhuPrSh+TEZGZJWNBZkKktjwjwlLsszUhvFkv7BdwS8+/c88bbvGzD+7rH86v6L+9uqgv/4Sl0xlYP1t/W7/bkBvTgenBdGHDNKxmhM2oYQZWMETDNSMiRsTK8rI++OADvfPOOxlzLDDJ+Js1DGHRuixMu6Zh03LUGa/k+fXr1yvaj3uldTXA/dn+fXPQ+7iSe51t+PUUDaCBVtXAxltTut57VO/9X3/AUoSB8TFO5foQI8Kv9VDMgQl/aQpv42ZEhLIhdjfv6O7KqhtMmhFhwaVN6Wg1ISwd334JtyD0+79d1+AvV/TruXXdXVnT2hpLpzOwfrb+tn63/jcdmB5MF1bE0obuhOtF5BSu9Idn3Lp1U5cvX9adO3fceYQ7nRnX15nvC/aBYxo2LZumy31ARV+vxIjgXulM7fCe0Dr9etD7OHpf85yAEw2ggXbRgAXX7//nP9aVz/2prv7Ff2EpwsD4GKdyZgRGRB2MCMuGsGXp7oprRHgzZKTd1HtLwbfaAJaWb7+IWzC6vLquzc1NbW9va2dnR7u7uywdysD61/rZ+tv63frfdGB6MF0E9SKiWRGWERFkRSwv33UDN/sijm64V9r1/SJ8L5iWzYyoNjOinBFhx7Pjcq9wn7TrfdLq7a7HfdwuAQftJDhGA2ggqgH7pR8TojIDxjgZryjD8HOMiDoZEZYRsbS8mhmWYb9yWzbE3aQ3I4bVCLD0fPtl3AJTrw7AAz14wNINDGxGDOt363/TgenBCljabBqWFRGuFbGX3ndn0AiMCEtlt1+R0Q33SifcK8G9YJo2bYc/kMo9LmdEcK9wj3TCPdIO13CQ+7jcfc7rBH9oAA20qgZsOAaZEJUZEcbJeJXqS4yIKo2ITJFKqxHhD80wE2LXMiJ8I2JzN6gNsafF+yn3128rWGi1AtY3kq4JIf51HQEzFu7d33R1YHqwoqXRWhHBdJ6Z4Rn7+25NiPv376ObrlNM516w3QvJZNLVdqkPqOhr5YwIG7vOvdK5uuHKWotArfdx9L7mOUEnGkAD7aIBjIjKTQiMiDImQ7jmQ7HH0RoRGSMiUh/CNSJW1tyig2ZE2IwIK5t+bYg1b3YMK8poaZf2awf/uo+A9XsqlXILlNpsGja1p9WKMJ2YXmx4RiEjwjSIbrpPL518xcG9YNqu5stHOSOCe6WTVcO1tRqBWu/jau55tiVARQNooJU0gBGBEVH0s9im8ihmKNS6vlIjYmfTy4iw+hA2LGN9y0u7//Terj5Z23WncjQjYm9vr2j7eaHzCVj/mw5sak/ThTc8I6V7/vAMd/aM9L720ml3eMaDB/vuDBnopvO10W1XaJpuhBHBvdJtSuJ6D5NALfdxKwUVtIUgFw2ggWo0ULER0f9DbbzxrOYKFXPse1Ybb/xQHxd6rcPWMTTjgFkRlRgRVqjSjIjF5VV39gMb72/1ISzt/vb6rm6s7OiDpR03ALVxlfzrXgLW/2ZEmB5MF6YPqyMSzJ5hRpY7jWc67dcR8YwIdNO9munUKzdNN8KI4F7pVMVwXa1IoJb7uJov/WxLkIgG0EAraaAiI6L/h9rc8N6x996NmBF9z2pzzXttf7bzzQiMiGYZEUnPiAgyItY2AyMipbllMyJ2MSJa8VtUk9tkX9o8I2LX1YXVibh7P+UaVzkFK/cwIprcNZyuyQRqCWAqGZqBEdHkjuR0XU2glvu4lYIK2kKQiwbQQDUaKGtEhEyI4MMhY0aETIjgtZJmxPlbwWaRv7e0Xm3mxP+e0b6S2vzflQ+tWDr/Cy1Ve57I9hgRh2JEpN1pGa1QpdUBsHoAVxbJiIjcRV35NDAiTA+mi6BgpRlXNqTHjKzdvbT2MCK6Uh/ddNG1BDAYEd2kEK61HQjUch9X86WfbQkS0QAaaCUNlDUiCpgN9l6+P/tmJksi/N6eMSkiAbw7M4drROSbDkuzSalKU+FqlUaEe47kDEZEuLPKPT6MGhE2LMNmzdjZXMwMzdjY3tPq5p4WN3Z1a90zIt7HiCjXfV3xemBEmB7mVryClWZYrW6mdH8njRHRFSrgIo1ALQEMRgTagUBrEajlPm6loIK2EOSiATRQjQbKGhFmKBQxI6Lv3iVNCDtOESPCTIr1efMiqjAKMCKi+PWZvDUHXHHYRsTCXa9GRI4R4c+Y8f4CGREH7N6O2D1jRCx4GRFmVJlhlWdEpPepEdERPc5FFCNQSwCDEVGMJushcDgEarmPq/nSz7YEiWgADbSSBioyIgIzwq8TUejdeX82UjuiiowIN1uikLEQGcph53C3tWMX2N41MzKNyw7b8DIughey671jBOslzf8ie/xC7f+L/yKGZjR4aEY4I8KMCJuC0TMiUgqGZly7u6PLGBEh5Xbvw8CIMD2YLmzojmdEeLrZ2vWHZmBEdK9IuuTKawlgMCK6RBxcZtsQqOU+bqWggrYQ5KIBNFCNBio2Iiww7/+FdgvNUTD/i8pmzCiREXH1L36hXUm7572aD555EB7G4b2eMSNyjIhntWmjO8JGgnuurOmQNzQj8vrVvyhwjAJmBEZEKxgRyxgRbfOtqsENzTEilsNDMzAiGoyew7cYgVoCGIyIFutEmtP1BGq5j6v50s+2BIloAA20kgYqNiJseEYjMyJyjAjPFAhMiUwWRNjICBsR7uOwaeGZGW6GhG9ORI0Iey1jagSGQ/iYwbrIX4yIQzMi9rSwsaubNjSjwUbE7GlHjlNoian34UGNnJ+TGV8l/82MuscYnSm5FS8ekEBrGRGzGnUcDZxdPOBVsTsEqidQSwBTuxGR1OzpXjmnZws2NHktruFHehSz99EjvRp8ZkrzhX7FiO69Maf4qX71HvHef2NHj2v47JySOfuuKf5Yofdnp2h7oqfhOQRalUAt93ErBRW0hSAXDaCBajRQkRHRhBoRuRkRXvZD4c8J33AImwauQVF46yBLIteI8LMfCu6SzaLIGCAhMwIjogWMiI8aPDTDMyJ6NPD0qEafDS/DGjgak+PE1P+qVTUp8Q8jogSc+r0UNiJMF+7QDL9YpQ3pae7QDIyI+vUsR6qWQC0BTE1GRDqp2R/0eyZDISPiwzH1Oo5ij44ofiGhyReG1BdzFHssrpIWXXJWo8fMuOjXyNkpJaanFH/aO0/v6dmQ+evdZz2PjUTen0c1+maZ9+VqobI9BJpMoJb7uJov/WxLkIgG0EAraaCsEVHEhKjnrBnZGhFhkyE7TKOQIRCuEZE/jCN/Ss9cIyIyzCNkNBQ8V+h1jIiuMSIGFF8q8A0kPa/xRxw5sWFd3C7wOquaSgAjoqm4OVkLE6glgKnWiEjdSWjsUTNj/YyEPCNiTZNPOHIeGc/JgEgmRtTjxDT8m1RRgvOvHpfjDGjiTu4m8y/Z+uOaCDyGOxPqdxyNJHK34xkEOoFALfdxKwUVtIUgFw2ggWo0UNaI6P9h3pCMzOwYBfGGRsYAACAASURBVEyK/dkfFq8XER5aEQruLfgPD6MIsiPyhk6E98nLiCidyZBrRFRWD6KQKYER0e1GhKTFn/a7X5g9o8L/FfynCcWHLBU5pp5HJzRXKCMivabEC0M67mZVOLK046EXEloLpx2nF5V4bjCbmtxb4VCQTvgGVsM1tLwRkU5q7uxw6T6Xt01/rx/gHelV/6m45sJj4ZKRlPXe/gIp6zUAZJeOIVBLAFOdEeG91zmxPj35ZkITJwsMhdiY0lDB4UlXNXbUUSzPuAjwr2nqqR7FTkzkZ01cO+NmWGSGuSVGQu+/wf78hUBnEKjlPq7mSz/bEiSiATTQShooa0RY8B8yIzImRGAKhMyIkiaEbV/EiPAyGnKNhELrXLMimOIzbEQEhSaD19y2RbIeouf2h3OE61B458yvNRE2JDAiMCJ09bke74vwsn3x8b6cx2Ix9X5zQlPTkxo/PydFjYj0ouKP+cM6nolrytKOn/HTjp+dlfs74fasxh6K5aYmB9vkpCZ3xheu8FV8/etfz/7KGvza6jj6xje+Ed4s73FrGxGLmnwiJgvchl6YVGI6kqbuG1CLZwfkOL0afM50kdDU2RH1x+xX5Ql5PwIvKm5B37FBjUVS1o+XGyKUR4wVrU7gIPfC9PS0qvmCUa0RMfbYmBJuppivyaix8N6oO2QjYxpkYKd08ZQjp5DRkNmm8IO184NynB6Nfei97hrBsVFNJsYyQ+V6HhlW/FrZyj2FT8BaCLQQAYwIgsRq3sPZFr20uwYqMiJ8M2LjjSJTdPY9q403SmRCBKaFH/znv+UXDv49YyC0ddhoyDEibChGft2H3IyKbN2JjPmQ157C7cCIOKD5kA7t/84707Ivy7Zs37+tva073rK9oL2tBRWfvjNbrLI5NSIKDM1IpzR/Ydj9dc45GYx39n8lfPiM5sKZDREjIvWbYTdbYvjt3C/LlnYc6x3RxaTkpibHhjUV/iVcUvJt2zeUmhy6Jzrl4RtvvFHQiLhx40bJS2xlI8Lr8+M6cy1yCTfHdTyTpu4HdE/n5pknLzyp2NFBxS1NfSmugbxU9KSmvhlTz+OBDiPn4GnbEjjIvdBYIyKMtIgR4b7v9ecNr7A9vdo7oypc3jJ87NDjoG5ExpTzDY1QDYrE+TMaMgPX6dXoTO77a+hIPIRAWxDAiCCwbPfAkvaj4Wo0ULEREZgJXf6XjIiQqRA2GCp9fOX9f8sYEe/NzmhrY75FjYgiVdnt1/pjT2oqM47ZNyKivwxGjIjZZ+2X8VHNhs2KnK9Fi5o44ch5dMz9Vdx+Pc8svxxRX8F055wDtP2Tr3zlKzlmxHPPPVf2mlrZiEg87cjpeVIT4b50H49r0HTkaiali98xbfRr9MKc1goNod++qGEr9ndiVFM31pQqqqGyuNigTQjUei8cthFh5pvVeShUX6dqIyI5p3HLIosNeIac23eLij/e4xW+DN8H6Tmdsdo9R8d0Nby+TfqbZkIgIIARQRBXTRDHtuil3TWAEZFf2DKcARF9jBFxQCPi7sJcxogIMiPK/bXZD1Y3m50RUWDWjOfjmvpwPhIIVmJE+NPNZbIogq8c4b/+cULDEjIF4fx1sWer+i0xfPC2ePziiy9mjIienh4lk+V/3WxdI8L/xbhEfzqPxbVmPXNnSk+6v+ia+RVTz0ODGjmb0HwoM2bxzSfdmQdcTcR61Pf4iOLT85FpDduim2lkBQRqvRcO24jwhqTVISNiI6FRuydiAxqvcMiFN8SpT+M3KwDMJhBoUQIYEQSW7R5Y0n40XI0GMCIwIop+HF+7+LQqzXSoZrv3L2ezIsqZEPb64RgRhX/Vy4dViRHhB6WVGBHRzIr8E3bsmpWVlYwR8dOf/rSi62x5I6Jkn+de4tqNhOLPDSlTtDLnl2BJ6TXNTcc19k/92WKmNiUivwDnguyAZ7XeC4duRNSjRsR8XINHoplnkU4tpHm3iKWj/PoUkX15CoEWJoARQRBXTRDHtuil3TWAEYERUfQjuVFGhJkWlhlhwzTCNSOKmRLtb0RIRYdm2Bf3o/2auDGv8YcdOQ+P+wUKi3ZLR7/w3e9+VydOnKj4GlvXiAjGstc2zWvq5oRbF6LnB1cLs7B6Ja9akctsEb/CG7K2XQnUci8cuhFRZtYMJ1ILJdo3yStjbqHW2IkxXS2UEOXXS+l7KZjLM3uE+Zf6QkWEs+t5BIF2IoARQWDZ7oEl7UfD1WgAIwIjouhndCONiCCDoq2KVRYkVUlGhFS4WGVSiad7MrUj3GKVTo9GErnfwJOJEfXEejTym9z1BZvT5ivff/99Xbp0qeKraF0jIuhzRwM/Xcy9njtmMsR0/NU5KZXQ2EM96n0uYjgkp/Sk48iMiFRiTH1HezV2JfcwVtASIyKXSSc9q+VeOHQjQmuafMJmfBnXfChrwX0PyxRoLdJLd+IasFooJbN85jVhtSCOjWo2/HaYTGjkqCPniUlvuFORU7AaAq1OACOCIK6aII5t0Uu7a+B671Fd+dyfKloLgef5BoVxMl6l+nx1dbWm0QwW8x/032cOeoDo/hgRUSKFnldmRCgzfWevBt2pHKc08VSfO5PGwOt+oBpUiHdi6n/OpnucclP1+8p+OS/Uru5Y18pGRLbPY+p7yqZ2TWjy5WH1u2nnQSCV0uyzvW5tiP5T45q0Ypbnx/XkCb9In02VuD2r0WOOO63r8Mv+NKAvP+n9cmxBW3d0NVdZhkAtAUx103eGG1Bk1gxJqfdG3ZmFYidGFL9QeMpaKaihEsyisaapIZv5okf9p0Y1+mz+MuXXfkjO+Md/6ElNXLD75YwG7f6IDmUKN5fHEGgTArXcx6W+lPIagSoaQAOtrIGNt6b0/n/+Y8yIMrOBmAlhnIxXqf7EiKiymGW3ZES434HSa0q8MKTjR+0Lt6NY76DGEm65wuxXpOScJp8ZzNYAONqnwecS1AHIEsp51NJGhLU00ufOkV71n4prLlSIUumkZl8O1YZwYup9fEwJMyGCfxuzGg/VhrDjoIsADn+NQC0BTCOMCGtL8lpcw4/0KGbFWk2rz0zlZEjkGRH+kI5ogd7w83Dth5zjx3p0/J/OKLGMDiDQ/gRquY9LfSnlNYJQNIAGWl0DFlzbL/02TIOlMAPjU86EsH7GiGiCEXFteUeXF3b05Z8sul++2/+rB1dQK4HWMiJqvQr2g8DBCdQSwNRuRBy8vRwBAhDIJ1DLfdzqQQbtIxBGA2gADTRHAxgRDTYibq3tCiMi/8tLt64JGxGmC9PH4v2UVjdT7mwrW7tp7e6ltZfe1/7+vh482Henj7X9+AeBTiJQSwCDEdFJCuBaOoFALfcxX/Cb8wUfznBGA2ig1TWAEdEwIyKlhY1dN9DEiOiEr1v1uYbiRsQeRkR9EHOUNiFQSwCDEdEmnUszu4ZALfdxq38xpn0Eb2gADaCB5mgAI6LORoT9ou1N35lyf+kmI6Jrvo9VdKGBEfH+wo6u3Q1nROzp/k5aZERUhJGNOoBALQEMRkQHdDyX0FEEarmP+YLfnC/4cIYzGkADra4BjIiGGRF7WSPi7o4s8KRGREd9/6rpYvKMiPVdLW7sukMzzIjYTvlDM/bSDM2oiTA7tQuBWgIYjIh26V3a2S0EarmPW/2LMe0jeEMDaAANNEcDGBH1MiKSC1pcXnV/0fYyIvbcAPPW+q7mVnb0/iJGRLd8MSt1nRkjYnHH1UW4RsT9nT2MiFLweK2jCNQSwGBEdJQEuJgOIFDLfcwX/OZ8wYcznNEAGmh1DWBENMCIsF+2rfjg0v2U5n0j4gpGRAd85Tr4JQRGhOnh+vKOqw/TydqmDc3Yyw7NICPi4LA5QksTqCWAwYho6S6lcV1IoJb7uNW/GNM+gjc0gAbQQHM0gBFxQCNib3tBqa0F7fgZEZZabwGlBZaBEXFjZUcfLO0yNKMLv6RFLzkwIkwPcyEjYn1rT0mMiCgunncwgVoCGIyIDhYEl9aWBGq5j/mC35wv+HCGMxpAA62uAYyIOhsRVmzQAsq1Lc+IuL2+q49Xd3V1iaEZbfktq86NDowI04MZVKYPM6zMiAiGZqTc6TvTsm2ZvrPOHcDhWoZALQEMRkTLdB8NgYBLoJb7uNW/GNM+gjc0gAbQQHM0gBFRLyNic0FLy6vaTnm/bK9vpbScTOnTe7v6ZHVHH97dJiOCL26uuWBFS00Pn6ztuvowndzb2tPmrhWr3FMqva+9tG9E7O9renra3Q98EOgkArUEMBgRnaQArqUTCNRyH/MFvzlf8OEMZzSABlpdAxgRBzEithdkQzN2N+9od2tBSytr2kmltbm7p3vbe1rZTGlhIyUrSGj1AJg1oxO+dh3sGuxLm+kgmLrT9GE6Mb2Ybkw/lhGR3t/3MiIwIg4GnL1blkAtAQxGRMt2Jw3rUgK13Met/sWY9hG8oQE0gAaaowGMiFqNiK07rgmxtxUyIpZXtbvnGRHBzBmZOhGru/pvry5qe3evS7+ucNlGwPrfdHBjdVe3172CplbY1PQSGBF7ac+E2N/f14P9fb3zzjtKpVIAhEBHETBNm7ar+bAvZ0Rwr3SURLiYNiBQy31czT3Pts0JBuAMZzSABg5DAxgRdTAirFilZUXY0AwzIjIFK7f2tJzc052NlDs84x/Or+id+a02+GpBExtFwPrfdHAzMyxjz60PES1Uab8yBUbEBx98oJWVlUY1ieNC4FAImKZN29V88JUzIrhXDqUrOWkXE6jlPq7mnmdbgiM0gAbQQOdqACOiSiMi7W+/F8qIMCPClqW7K25avY3zt/H+lm6/urmnRX8az59d2dD/mFzR7t5+F39t6d5Lt363/v/ZB/fdaTsXN3ZdfXjDMvz6EH6hSteEeOBlRCwvL+v999+nTkT3SqfjrtyMNtP0yvJyXY0IOx73SsfJhQtqUQK13scEFZ0bVNC39C0aQAPVaAAj4iBGRGBG+HUi7q6sukaEjfO32TPcaTzdrAivVsTHy1v657eX9N9fv6NLn2woubWjnZ3ssr29LVu2trZYOoSB9edGcksXb6zr6/FP9c9vLWpu6b5uLSfdYqY2u4rpxPSSVx/CjAjXjEjr1s2bboC1trbmZkq06PdSmgWBkgTMYLMPHTMLbt26WZUJYR9s5TIibBs7rh2fe6VkV/AiBGomcND7uJovqWxLUIMG0AAa6FwNYETUw4jwMyLuLq9oby/tD8/wxvx7tSK8WgA3797Xl7/7iU6e/jcNfP89li5m8JWReYVrQ1gWjQ3rMf3Ylzw3I8JqRPhGhL0J26+9lnpu4+BtJg0WGLSbBky77vCJKjMhgi8hlRgR3CvcF+12X7Rbew96Hwf3M387N7igb+lbNIAGKtEARsRBjYhQVoQZETbbgc16YL9uB7UigiEat+5u6Gv/8q4ePHhQ8y8R7NgZBAZGZ92hO1YbwnRSKhviwX666l+OK7n52YYPCTSABtAAGkADaAANoAE0gAYOQwMYETUaEYVqRSyvWEbEnvurdmBGBEM0zIyYX1rTo//8u86IpLmKAxGwjJhgSIZlQpheimVDYETw4XAYHw6cE92hATSABtAAGkADaAANNEIDFt+srq4oiKmr+Xvt4tMHisNs588c+AiRA1ijqrmIemzrFq30syLW11e0tbXtZkXYFIwWYIbrRXy6tKq/e+YdMiIi/daNTy0jIlwXIpiy04p/ucMx/CEZdpNiRPAB0IgPAI6JrtAAGkADaAANoAE0gAYOQwO7Ozu6t44RcSDzImxEbN2/q42NdXd2AxuiETYjLP3+08W76h+ZxojoRuchcs1mRGQyIdL7rnmVMSEitSEO482Bc/KhhAbQABpAA2gADaABNIAG0EAjNHB/Y13bybs1xeFkRPhDOjJGhJ8VYc5OMnnfLTYYmBHBMI07i0sYEZGAvFufmhGRSu+7wzFMJ2ZCRAtUkgnBG38j3vg5JrpCA2gADaABNIAG0AAaOCwNbG3e18a92rIhbEQDRkSktoRrSGwvaG970U0zuXdv3R2msZf2xv6bGXH7zoJOPH2JjIhudR9C121GhNWEMAOimAmBEcEHxGF9QHBetIcG0AAaQANoAA2gATRQLw1YXGPDMSwTwjMhFmvKhsCIiJgQBiSaGWHDNKxmxN3lZdlsGndXVvX+lav62+9edH/5DsWkPOxCAmZEuLpYXtHyyqpWbFm1vys5i1WTZYEBGkADaAANoAE0gAbQABpAA+2rgRX3x/pah2OEazuSEVHAjMgYEm5mhJkTliGxoNTWgnY37+jWjX/DiOhC06HQJbtDM3x9BDoJm1nhm43HCzU7prCDHRpAA2gADaABNIAG0AAa6BwNYESUMiKsXoRfM8INMv2A85Pr72JEFIrKu3CdOzTDdJExI3zN+NrhzbJz3izpS/oSDaABNIAG0AAaQANoAA3URwMYEUWMiEBgmV+3g+yI7QV9fO13+pvv/JqhGV1oPEQv2TUiAm0ExtXWHX75L3NfBfcXf+vzRg5HOKIBNIAG0AAaQANoAA20kwYwIsoETBkjIhRkzn2U0N98522MiGhU3oXPvYyI3CwI00w7vQnQVj600AAaQANoAA2gATSABtAAGmimBjAiyhgR0c6wIPP61Wk9MnzBnSWhnrH34tkBOY6TswycXdRhra/ntXXqsU6O/ps7fCeqE57zRo4G0AAaQANoAA2gATSABtAAGiisAYyIGoyIax/81jUi9vf36xpfH5bhUOy8db24Dj1YkBHBG0zhNxi4wAUNoAE0gAbQABpAA2gADaCBqAYwIqo0IgxgYESk0+kODa+5rEoJWEZE9KbiOW+0aAANoAE0gAbQABpAA2gADaCB4hrAiKjBiPjoyiV9dXiq7kMzKg1+2a51CGBEFH9z4Y0XNmgADaABNIAG0AAaQANoAA0U0kBLGhHXL51WKnmrZX9pxohoHSPgsFuCEcEba6E3VtahCzSABtAAGkADaAANoAE0UFgDFutbzH/Qf5856AGi+99+/xVtLCQwIqJgeN5yBDAiCr+58KYLFzSABtAAGkADaAANoAE0gAYKacBifYv5D/qv7kbExtIV3X7/ZYyIg/YM+zecAEYEb66F3lxZhy7QABpAA2gADaABNIAG0EBhDVisbzH/Qf/V3YiwBt25elZ35yZb0oxgaMZBJdM5+2NEFH5z4U0XLmgADaABNIAG0AAaQANoAA1ENWAxvsX69fjXECPiwX7abaDrliwkWqpmBEZEPWTTGcfAiODNNfrmynM0gQbQABpAA2gADaABNIAGshqwmhDecIyX3RjfYv16/GuIERE0zBum8YpbzMIqa7bC8sbLTzBrRtBBXf7XjIhW0CRtaI33BvqBfkADaAANoAE0gAbQABpAA7kasMKUbh3IOgzHCIefDTUiwidqlcdzc3MYEa3SGYfcDjMi+AcBCEAAAhCAAAQgAAEIQAACzSWAEdFc3pythQhgRLRQZ9AUCEAAAhCAAAQgAAEIQKBrCGBEdE1Xc6FRAhgRUSI8hwAEIAABCEAAAhCAAAQg0HgCGBGNZ8wZWpQARkSLdgzNggAEIAABCEAAAhCAAAQ6mgBGREd3LxdXigBGRCk6vAYBCEAAAhCAAAQgAAEIQKAxBBpmROze+Lk2zn1Jay/8sVbH/mPLLL/71r9vWLHK2dOOHCemgdcXC/fWUlwDjqOBs0VeL7wXaxtEwIyIz738ubzlPzw6ot97+IcsLcDgD/7uRR156uc6987HDVIBh4UABCAAAQhAAAIQgAAEmk2gIUbE/V/0ae3Hf6bVH/0nrY9/vqWWmZE/abAR4ciJDSi+VKArMSIKQDm8VWZEfCH+hbzFTIjPnjzH0iIMfv9vX9YfnRxX73cnD08snBkCEIAABCAAAQhAAAIQqBuBuhsRlglhJkSrGRBBe5piRDiOYkNTWot2E0ZElMihPseIaB+z5fcf/Zn+6OTLZEYc6h3DySEAAQhAAAIQgAAEIFAfAnU3IjbOfkmrL7ReJkTzjIgRTfx0wB2iMfRmxIooaEQkNXd+RIMP9Sjm2NAOR7Hefg2fnVMy08eLip905JxOaC0xpoGjMW+748OKX0tK6XlNnjqunphlY/Ro4LmE1tKZnb0HSwmNPd7rnyOm3sdHNGn7dvE/jIj2MSIsQ8UyI4489XoXK5ZLhwAEIAABCEAAAhCAQGcQqLsRYTUhgqC/Ff82PiNiVLPpRU2YcRAb0lTYiyhgRMy/dNw1LfqfiWtqOqHE+XE9ecKMhpiyRoZvRBzrVe+Rfo2cnVLi/BkNHnPkHB3Sk4/F1PfUhKampxR/ut81G46/Op9RaOq9MfXFHMUeHVH8QkKJC3GNPGrn6NXoTPeaERgR7WVEmBlhNSP4BwEIQAACEIAABCAAAQi0N4G6GxFWmLIVDYigTU0xIkwTdybcwpQ5QzTyjIirGn+4R72nZ5UK62j7ooYtu+H0rL/WNyKcAU3cyW6YenvYzYzoeToRyp6Y1/jDjpzH4v7QkHlNPOIodmpKyZwsiaQunorJeWRCWcsie+xueIQR0X5GhNXv4B8EIAABCEAAAhCAAAQg0N4EMCLq2H/erBmjytgH0SEaeUZEsZP7xsOpi75B4T8/MaGc+TZmRl0jYiSRe5zE046ck3Fv2zsT6ncc9T83pYRlXISWyWf65DhFCmvmHrIjn2FEYER0pLC5KAhAAAIQgAAEIAABCLQ4AYyIOnZQ1IhQdIhGMSMinVJyaU6zNrTi+RENPeLXiwjMBPlGROa532jfiBidyb0Itx3Btv42Vnui8BLT6Hu5+3fLM4wIjIhu0TrXCQEIQAACEIAABCAAgVYigBFRx97IMyLs2OEhGgWMiMU3n3TrN7gmwZFe9T08qOHnxzRswysCM6EORkTUrKjjZbftoTAiMCLaVrw0HAIQgAAEIAABCEAAAm1MACOijp1X0IiQtBgM0fjBmFs3YuCsP8BibVKDjqOeU1NazCkS4dd5qIcRcXNcfY6jvpe6tRJE8Q7GiMCIKK4OXoEABCAAAQhAAAIQgAAEGkUAI6KOZIsZEZkhGv7wiIwRUaTGg66d0XHbth5GhLxilc7RESVyJshIKvF0j2JHR3QxZ30dgbT4oTAiMCJaXKI0DwIQgAAEIAABCEAAAh1JACOijt1a1Iiwc/hDNGwIRsaIWJvSkM2OcaRfY+etkOSU4s8MqCcWU+xIvYwIKTkzql4zNoLzXIhrbKhPMSeWbUsdObTLoTAiMCLaRau0EwIQgAAEIAABCEAAAp1EACOijr1Z0oiQNP/ScbdgZMaIkJS8FtdwUJwy1qO+x8c0dTOpqz/okRMb1sVta+ABilX615e8NqmRx3sVc7MyYup5aFBj0zlzcNSRRHscCiMCI6I9lEorIQABCEAAAhCAAAQg0FkEMCI6qz+5mioIYERgRFQhFzaFAAQgAAEIQAACEIAABOpEoCWNiO2lEkULHuzqwdZ1pd49rvXxz1e9zIz8ib46PKV0Ol0nhBymXQk0x4h4QwPnF/TBekq7+1lSu9s7mrt6QwPfqs0MiL32qeaWlvTtk7Xt/9my+13RJcvGWbql8ts2qg35x/29h3+YhcgjCEAAAhCAAAQgAAEIQKAtCbSwEbGr/YU3lfokvLytvXurPuhV7U1jRLSl6lqk0Q03Ir71rs4t+O7D7o7mPl7SucSnOje7rLl1f/32Pf1oLD/gLhf8v7IkaXsZI6JFtEQzIAABCEAAAhCAAAQgAIHKCbSwEZHU3kxhoyH5yYJ3hSsvkhFReV+zZYRAY42IN/T9m57ZsHHzhv66QAbCX0/f166k3U9v6M8LvF7KjMCIiHQmTyEAAQhAAAIQgAAEIACBtiHQlkbE+utvyg3xNn4eMiJ6tfnRjPZTWfbuEI7f9Ya2GdQH05cYmpFF1NWPGmpEjC9p2ehuLOl/FDUZLunc8r421pf0vdA27rCLTT9jwoyKzfu68Ktpf4iEP2Qi1HMb168UHD7x7et2M9zXpBkedrj9fc3NJBSsfyV0TjM9ctcXGprxhgYuLOu2W0DVa8DG+j2de/WN0Pnf0P9K3NfGXraB1v5zr70V2qb6DJDAlGFoRpYrjyAAAQhAAAIQgAAEINCuBNrTiLhyxeO9/pOMybC94A/Z2L6uPRvOsXBdD9wyEEntzXpmhNWemJu7ihHRrmqtc7sbaUQMXNlxWzs3HQ7Sywfgxy55WRLavq9Ls/4wDjfw39fctJkRl/Tti59qZsMcivu6kPhUPzp3qWCQ7xkLZkCkNHf1U01eX9Yr41HDIdumckbEt69617S7cc8977mr97TsGg4pXTrnXeex6fvudW+srkW22dK5Z7PnCoyFav9iRNT5JuBwEIAABCAAAQhAAAIQOAQCbWZEHFfyvTf9rIddpa/42Q5TfobE6k90P1zA8vUXlbZA6f6bSo4/q72UNPfeCxgRhyC0VjxlI42IV9zRQyldeq2a4PtDzdhYjdWFSBHLaU2az7a7lsmcqGRoRmBELF8Osim8tuQaDtn25a6PZEQ8+6luWxPmbygWzqT41jWvzcuf6tjJcyrUrj//1T3tWjbG9K8LGibVmBEYEa14J9EmCEAAAhCAAAQgAAEIVEeghY2IEhfyIKn09Se14ZsOG37NiP3lcGFL73Ha/TX5lnbH/16p+9Lc3HsYESXQdtNLDTUirJik7is6/OGzP1uWJTPk/kvp0s/O6bPnvNc2Fha8opZW2NJfLizZ2Ap/uyIBfzSg94yF7D7B67mGQ2VGxJ8nttwm3/4426agbW52hn+t3/vYHQOi5Y9v6Xtj9RmOEbTb/mJE5CqHZxCAAAQgAAEIQAACEGhHAi1sRIRnzXhbexvelJ4P1n+urddzi1iWnO7T7ZWk9t79vDZmp3XtozmMiHZUagPa3HgjokBGxI9vaWbhvub85famXZhvFvjDGkpd6twlzzgolHkQDtjtcT2NCO9YpVrmX+vY4PtHzwAAHZJJREFUJ/ogVEPC0pCW55f0I2pElILHaxCAAAQgAAEIQAACEOgqAi1sRERnzehVxnDY+LmSoSEY3vro9rlmxbq//czI0cYbEelFJV4e1uBDPYo5jhwnpp6HBjVyfk5Jt25FDRrbmFP8qXHN1rAruxQm0EgjotIaETlmgW9EzE1nsxSi5kLw/HCMiPzsiqA9uX/f0LFzn+jCx1uhopVBjYvy15Z7rNztyYgorGXWQgACEIAABCAAAQhAoJ0ItJERYcbCoHY3bBC99GDp2czQjOS8N53n/vzfZ4pXBsZD9O/MyJ801oiYj2vwiCMn1qeh5+Kamk4ocSGusaE+15SIPRbXYg1mxOLZATnOKEZEHe+uRhoRnw1mzVhdKDh1ZxBs5xgR59e86TxvXitbS+HgRsSOLvw4N8j36loEw0lya0Qcm/WHZswWLowZXE+hv7HxT3XbRmxsLGkgXF+ihscYEXW8ATgUBCAAAQhAAAIQgAAEDolAmxkRn9f62z/XfjAbxoyf9RAUq0zNaDs8bON1r0ClUle086/efnMzzzbOiEgmNHLUkXNsVIn8QgBauzCsHsdR7w+uVt3dGBFVIyu7Q0ONiJNv+EMjpI2bNyLFJz0DIPbagm4Hs05YjYiTfrHK/S2dGwubBNM6Z3OB2vofeusPYkQE2RofvB2a0WPMNwsydS1yjYjP+sUqtb2sb38r1LZv+dttr+n7Jz/UpY39/ClLv3VDH5h/iBFRVpNsAAEIQAACEIAABCAAgW4g0H5GxPjnlfSLU2p3RtvukIvQsI30gtLzNn3nlczsGvsfD2p9/O+1e29Xc3ONqxEx/+pxOU6PxvzZRfMFtKbJoR71PRHXfObFpObOj4SGcTiK9fZr+OycvKoY0uxpG94RWk6HBmgsJTT2eG9mCEjv4yOavBbsmTmJ1hJnNHQ85h4ndnRAY4k1Jey4J+NazG6m5LVJjZQ83qLiJx05p6c0+9xxL8ujd0Rnf2zXPqC4W6QxdEDNa/xhR7Fwm8MvH+LjxhoRFqxP60efprwr3E/p9vyyJq345NU1zVnA7v7b1+3rNzJZE3897U/f6U+5eW52ObPtxvUr+nM/i+AHn9rO++60nKWn7ywwnCLI1tjb0QdXrT3eNJwbm9bWwhkRnw0ZK9rb0oxNLXp1TbdzphY9p29/5F3v7kZo+lH3Wvc1d6n6bIpohgUZEb5s+AMBCEAAAhCAAAQgAIE2JtCWRoQN0bAZMOzfg0+/4w/H6NXWJ9f1wI/73BdTC9r7KDu7xvrrT+rqO79rUEaEF3A7D4+HTAavjaX+n3/JAviY+p/xh3GcH9eTJ8wwiGnozTV317UbCU0+0yfHGdS4DfW44a1PvTemvpij2KMjil/whoCMPGr79mp0JmtGJGdG1etkt5t8YUh9sV71Hss1IjLbnfCPd/6Mhh6KHs83ImIxxU6ManJ6SvGzCa0txTXgOBo4G7Y1JN0cV19Jc6YUnca+1ngjwswIq5dwS5eWUtoNvAe7rL2Ubn+8oO+/EMpK8E2Gv/7VkuY2QxvvpTSXuJwzbeafn1vSbW+UkrRwq+BQjpxhH5FhEH/9q2XfRDA/I+WZIW6NimJGhHct/ytxT8uhYpS721u6dOHdjEHy2ZNv6XuX74dqQ0jK2yaUURFpV9R4iD7HiGjsPcHRIQABCEAAAhCAAAQg0AwCLWlEROs61PN5w2pEpBMasayFpxNV9NtVjT/co97Tswr7J9q+qOGYZR1kMx/yh2bMa+IRR7FTU5ECmEldPBWT88iEZ4ikr2rsqKNobYrAdMhkRPjbOScncmtYpOd05hEnezz5RoTzpKayXoekNU0+kWtsGIj5l/rkHB3T1RrqYlQBsqZNm2NE1B50R4NwnjN9Z01CZycIQAACEIAABCAAAQi0GAGMiHp1iJ8REDYPaj+0H+yfupgxKPKMiDsT6ncc9T83pYRlSYQWL3vCHybx4Zhbl2L47RyrQ9KiJk6EjIOi20lr5wflOH0av2lX5LctMqTDXvG2Cw/P8EyQnueqr4lRO7vK98SIaD+ThIyIyvXNlhCAAAQgAAEIQAACEGhVAhgRdeuZWY1WnRHhnzydUnJpTrM2zOH5EQ094k/7GQr284yImdHcuhHhGhLu45hG35OUGJHj9GviTv6FurUngnO4xwvMhsi2/rlGZ2x9cSNCa5MaDA/PcM2NHo19GDleizzFiMCIaBEp0gwIQAACEIAABCAAAQh0FQGMiLp1tx+gl6kRMf9Sv3ofHdaUX9Rx8c0n3ToPbjHKI73qe3hQw8+PafjhULaChf/R6TtzzIHiF5F6e7h5RoSSmhpy5DwxKaticfUHPd6wjOLNO9RXMCIwIg5VgJwcAhCAAAQgAAEIQAACXUoAI6KOHV921oz0vMat3kJQM8HPIOg5NaXFnJETfuHLIFuhkBHhFoF01PdSdv6NgpdSdMhFJLOh6HbBkIsgqyKyX+SknvExqMk1b1hG2fZF9m/mU4wIjIhm6o1zQQACEIAABCAAAQhAAAIeAYyIeioh6ReZPDaqxEb0wEnNvTSgmBPTwOv+zBJ+VsNItL7ltTM6bsMrShkR8opVOkdHlMgpGplU4ukexY6O6KKtL1Ks0mazyDlHuWKVx85ozr2k0kZEUGhz6PSo+pzjmijjk0QpNfM5RgRGRDP1xrkgAAEIQAACEIAABCAAAY8ARkSdlZC8MqZ+m/Ei1qeh57JTcg6702o67gwZGd9gbUpDtu2Rfo2dt4KTU4o/M6AemxrzSK4RkXxzSI7To6GXpjLTd2Zmvgj2vxDX2FCfZ3aEptFM/mZYsdD0nVOv2nCQmGJ27pDZERwvVsn0naH9chGmdPE7duzQzB25G7TMM4wIjIiWESMNgQAEIAABCEAAAhCAQBcRwIhoRGdvzGnymUH19cb8gpIx9T46pDPTfiZE6JzJa3ENB8UpYz3qe3xMUzeTXn2F2LAubvsbJ6/qzGN+EcvH4m4NBnsleW1SI4/3ukaD48TU89CgxgqcZy0xpkG/PbGjAxpLzGriZK4RUeh4vdae+Yx1UrpYpd/UlG98HH+1hdMhJGFEYET4kuUPBCAAAQhAAAIQgAAEINBEAhgRTYTdWqfyp+98OjoupA6tnBlVzAlP41mHYzbgEBgRGBENkBWHhAAEIAABCEAAAhCAAATKEMCIKAOo7V/emNLQkV4N/TKSjXFnQgPhqTbrdqFJXTwVy8ycUbfDNuBAGBEYEQ2QFYeEAAQgAAEIQAACEIAABMoQwIgoA6j9X17T1FDMq1nxwqQS0wlNnR1Rv9WgODaq2fCoiwNd7Lymnh3ViFujokejMznTgBzoyI3aGSMCI6JR2uK4EIAABCAAAQhAAAIQgEBxAnU3ItZe+GOtj3++ZZeZkT/RV4enlE6ni1PptFfSi0o8N6i+o37NiiO9GnxmUnN5M3sc5MLnNP6QGR49Gnp1TnXzNw7SpDL7YkS0nxHxB/0vlulVXoYABCAAAQhAAAIQgAAEWp1A3Y2IjXNf0uqP/hNGRKv3PO2jWOXJ9jIifv9vX9b/89TPUS4EIAABCEAAAhCAAAQg0OYE6m5E7N74udZ+/GcYEW0ujG5oPhkR7WNE/P6jP9MfnRzXuXc+7gZpco0QgAAEIAABCEAAAhDoaAJ1NyKM1v1f9LlmxOoLrZcZ0ZVDMzpawrVfHEZEexgRlgnxRydf1pe+88vaO5s9IQABCEAAAhCAAAQgAIGWIdAQI8KuzjIjNs5+SVYzYnXsP7bM8rtv/fvuqxHRMnJrrYaYEfG5lz+Xt/yHR0f0ew//kKUFGPzB372oI0+9TiZEa906tAYCEIAABCAAAQhAAAIHItAwI+JArWrgznNzcxgRDeTbToc2I4J/EIAABCAAAQhAAAIQgAAEINBcAhgRzeXN2VqIAEZEC3UGTYEABCAAAQhAAAIQgAAEuoYARkQ9u3pmVI7jaHSmngctc6yNOcWfGtdsmc1qe3lR8ZOOnJNxLdZ2gJbeCyOipbuHxkEAAhCAAAQgAAEIQAACHUoAI6KeHXsIRsTi2QE5zihGRA39iBFRAzR2gQAEIAABCEAAAhCAAAQgcEACGBEHBJizO0ZEDo5Wf4IR0eo9RPsgAAEIQAACEIAABCAAgU4kgBFRz17NMyL8oQ2nE1pLjGmwN+YO3YgdPa7hs3NKljt3ck7xU/3qPeJ4+/X2e/ulvR1nT3vrbTiIu5zODtBIXpvUyOO9irmvxdT7+Igmr+WfsfR2BYZmJGc1+lBMzrFhXVwudwGt/TpGRGv3D62DAAQgAAEIQAACEIAABDqTAEZEPfu1mBFxrFe9R/o1cnZKiQtxjTxqhkRMw79JlTi7bwIcG9SY7Tc9pfjT/a6xcPzVeXe/tRsJTT7TJ8cZ1Ph0Qokba+765Myoeh1HsRMjil9IKHH+jIbMPHB6NTqTNSMy2z00pDPnQ9vFBhRfskNFjIj0ouKPxeQcGVT8Tommt8lLGBFt0lE0EwIQgAAEIAABCEAAAhDoKAIYEfXszmJGhDOgiXDgnp7VaMyRE8pgyGvGUlwDjqORRPiVpKa+GVPP49nikXk1ItJXNXbUCkxOaNHPnHCPkJ7TmUccOY9MyLMx5jXhPh/XfHi75EUNH+lR/6tzuUaEmRBPxOSYSRG+lnDz2uwxRkSbdRjNhQAEIAABCEAAAhCAAAQ6gkB3GhGnppROh6PvOvVlMSPixERk1olIpkGh029f1HDMshpGNXVjTakizc0zIj4cU4/jaPjt/GyLtfODcpw+jd+UtOwZHQNnS82HEbTzjOKne+U4/ZrwXIxCLW67dRgRbddlNBgCEIAABCAAAQhAAAIQ6AACXWdEXL9+XV9tthGRN/1lEOBnMxsKaWnxzSfVZ5kTVuch1qO+x0cUn55XMmRK5BkRrhnimw3Rg4aNkvdG3WEepaca9dsZ1KBwYhp4vZRxET1haz/HiGjt/qF1EIAABCAAAQhAAAIQgEBnEsCIqGe/hgN997jFDIdi6ws0Jr2muem4xv4pVLTysXhm2EXNRkReWwucO6gREevT6MyiLp6yoRlDmvJKURTaoa3WYUS0VXfRWAhAAAIQgAAEIAABCECgQwhgRNSzI/OC+2KGQ7H1ZRqTTmn+1QE5To/GPvS2zTMiyg7N6PfqVRQdmrHmFqTsfeaikoEREWR0WN0KGy5yyl5r/38YEe3fh1wBBCAAAQhAAAIQgAAEINB+BDAi6tlndTQiUokx9R3t1diV3AYmLzxZ2ogoV6zy2BlZGUqpSLHKOxNukUyvdkS+YbL4U88IGUm0vxWBEZGrLZ5BAAIQgAAEIAABCEAAAhBoBgGMiHpSrqMRoe1ZjR5z5Bzp1/DLk0pMJzT58pPqt4wEG5rhtzv55pBrTAy9NFX79J2ZaT7H1H/EkXNsVLPbdoJ8I0JmdFi7MtvUE2Bzj4UR0VzenA0CEIAABCAAAQhAAAIQgIARwIiopw7qaURYuzZmNR6qDeEc6dXgc4lMfQi36cmrOvNYj1t40nksrqB8Q/LapEYe7/XWOzH1Pj6mqfn8LIac7WI9On4qrrnMZgWMCEmp90bV6zjq/cHVetJr+rEwIpqOnBNCAAIQgAAEIAABCEAAAhDAiEAD3UsAI6J7+54rhwAEIAABCEAAAhCAAAQOjwAZEYfHnjMfMgGMiEPuAE4PAQhAAAIQgAAEIAABCHQlAYyIrux2LtoIYESgAwhAAAIQgAAEIAABCEAAAs0ngBHRfOacsUUIYES0SEfQDAhAAAIQgAAEIAABCECgqwhgRHRVd3OxYQIYEWEaPIYABCAAAQhAAAIQgAAEINAcAhgRzeHMWVqQAEZEC3YKTYIABCAAAQhAAAIQgAAEOp5A1xoR/+6ptP7dKbF0MQOMiI5/f+MCIQABCEAAAhCAAAQgAIEWJIAR0cWBeLcbMRgRLfiORJMgAAEIQAACEIAABCAAgY4ngBGBEdG1WSEYER3//sYFQgACEIAABCAAAQhAAAItSAAjoo5GxAurxXt4JyV9dEP6YgXne2tH0o70RAXbdntWw0GuHyOiuF55BQIQgAAEIAABCEAAAhCAQKMIYETUMdgPjIh7a9JHy7nLvX2vC+/dlv6wzDkxIppTuwMjolFvKxwXAhCAAAQgAAEIQAACEIBAcQIYEWVMgWp+cQ+MiLfeLBBIPye9k/I64pWXC7xex3ZU0+Zu3hYjovgbA69AAAIQgAAEIAABCEAAAhBoFAGMiDoaACWNiFPSE7e8bgyMCjfzYVV6Ydnv3rT0ymtSoYyIL05LH21lZbCzJZ2fzjU0/uxfy2/TzcZD9NoxIrJ64hEEIAABCEAAAhCAAAQgAIFmEcCIaKIR8f8ted361r96BoJrONiqHen8FemtW9KJU/lGxBcvu5tIaem9G9IrN6SltH8sP/vi/571t9mR3vpQeuVD6SOrNSHpo8u5hkU0IO/W5xgRnj74HwIQgAAEIAABCEAAAhCAQDMJYEQ0w4g4I33zWtYoCIpQBkbEuYlcoyCaEeEO6UhJ/+9zoe0mpJv7ktWcMCPB3eae9HB4m1PSuXuSUtI363idnWJcYEQ0862Gc0EAAhCAAAQgAAEIQAACEPAIYETUMUAPhmYUFVdaOj+VNROihkMQ4Oes/1fJvIR7t7L7Bdtl/k752yxLr1zJXc77M3kEw0Ey+9Txutv1mBgRRZXKCxCAAAQgAAEIQAACEIAABBpGACOijgF5YETkzZqxIJ17V/rimVwzIcdwCLUjZ/2s1/clh1dcLq+Pj2Zzz92u5kE9240RUV43bAEBCEAAAhCAAAQgAAEIQKDeBDAiQgbAQYPcwIioNPsgx3AItSNnvW8yVGJElNwmdPyDXmen7I8RUe+3E44HAQhAAAIQgAAEIAABCECgPAGMiDoG6A0xIkoMzXhrS9pZlb78G6/+xM4dsh6qMUkwIsq/QbAFBCAAAQhAAAIQgAAEIACBehPAiGh1IyIoRBkpVvmHQV0Iv3aEW6xyX3olUvjylTVJtv41TIqoSYERUe+3E44HAQhAAAIQgAAEIAABCECgPAGMiDYwIjLTdwZTc96Q7u3Lnc7zhZc9gyGzzb70kU3xadN3bnoCsEKXf1jH64wG9O36HCOi/BsEW0AAAhCAAAQgAAEIQAACEKg3AYyIOgboDRma4bfvi9PSR1vZ7r93T/qXSPZDdBulpY+uSH9Wx2tsV9OhULsxIrJ64hEEIAABCEAAAhCAAAQgAIFmEcCIIEhXoSC9G9ZhRDTrbYbzQAACEIAABCAAAQhAAAIQyBLAiMCIwIjI3g88ggAEIAABCEAAAhCAAAQgAIEGE8CIwIjAiGjwTcbhIQABCEAAAhCAAAQgAAEIQCBLACMCIwIjIns/8AgCEIAABCAAAQhAAAIQgAAEGkwAIwIjAiOiwTcZh4cABCAAAQhAAAIQgAAEIACBLAGMCIwIjIjs/cAjCEAAAhCAAAQgAAEIQAACEGgwAYwIjAiMiAbfZBweAhCAAAQgAAEIQAACEIAABLIEutaISKfTWQo86koCTN/Zld3ORUMAAhCAAAQgAAEIQAACh0wAI+KQO4DTHx4BjIjDY8+ZIQABCEAAAhCAAAQgAIHuJYAR0b193/VXjhHR9RIAAAQgAAEIQAACEIAABCBwCAQwIuoJfWZUjuNodKbcQRcVP+nIOT1bbsPaX9+YU/ypcWXP4J/zZFyLwVHTi5o6dVw9Mcdtd/9P3/faFd4m2LYD/2JEdGCnckkQgAAEIAABCEAAAhCAQMsTwIioZxe1kBGxeHZAjjNa2ohIjMhxYup/dlKJ6YRm79zGiKinHjgWBCAAAQhAAAIQgAAEIAABCOQRwIjIQ3KAFS1tRORfl2dWDCi+lP9aN6whI6IbeplrhAAEIAABCEAAAhCAAARajQBGRD17pIgRsZYY02BvzB3+EDs+rKk7RYZmLCU09nivYo4NlYip9/ERTV5LhloY7JdQzjGPHtfw2TkFW86e9oZa2DARd3GHgISHZviPg9fdv5Y9Ed4mdNqK2zWl2eeOu+2P9Y7oYtCg0KFa6SFGRCv1Bm2BAAQgAAEIQAACEIAABLqFAEZEPXu6gBGx9uaQF5g/OqbJ6YQmXxhS30MDGng4t0ZE6r0x9cUcxR4dUfxCQokLcY08auZFr0ZngojeNwqO9ar3SL9Gzk6Ftotp+Dcp92rWbiQ0+UyfHGdQ49MJJW6sSTkmQ0qL7wXb9Gnklwklpue0lrONB6aqdsViip0Y1eT0lOJnE7KztvI/jIhW7h3aBgEIQAACEIAABCAAAQh0KgGMiHr2bNSISF/V2FFHscfiWkxnT5RMjKjHshAyxSrnNfGIo9ipKSVD20lJXTwVk/PIhObd3YNMhgFN3MkeT+lZjVrByczxpEpqROQPzYhmRFTbric1FXgmoea16kOMiFbtGdoFAQhAAAIQgAAEIAABCHQyAYyIevZu1Ii4Oa4+x9Hw216mQvZU8xoPZ0TcmVC/46j/uSm3aKQVjgwWL7MhqOPgGwUnJrIzX7gHjRoIdTIiqm1Xm822gRGRVSSPIAABCEAAAhCAAAQgAAEINIsARkQ9SUeNCPd5n8ZvRk+S1NRQKIPB3y9T0yGndoNXL2L0PTtGvuHgHTl/fV0yIg7cruh1t9ZzjIjW6g9aAwEIQAACEIAABCAAAQh0BwGMiHr2c8VGREoXT+UbEaMz5RqTbzh4e+Svr6cRUXu7yl3P4b6OEXG4/Dk7BCAAAQhAAAIQgAAEINCdBDAi6tnvUSOi0qEZ/nZ9L3mVIIo3Kd9w8LbNX18XI+LA7Sp+Ja3wCkZEK/QCbYAABCAAAQhAAAIQgAAEuo0ARkQ9ezxqRGhOZ445ck5O5BarnBlVb4Filc7RESVyij0mlXi6R7GjwVSY+YaD1/z89XUxIuQVq6y9XfWEW/9jYUTUnylHhAAEIAABCEAAAhCAAAQgUI4ARkQ5QtW8nmdESEnfdAim5Zx69Ul3mk63HkRolotgO+dIv8bOe9N3jg31KebENHB20W9FvuHgvZC/PvnmkBynR0MvTRWYvtPf6+yAHCcohGnrChwnME1qapff7Bb9gxHRoh1DsyAAAQhAAAIQgAAEIACBjiaAEVHP7i1gRNjhk9fiGn6kRzHHUezocQ2fndKZk6EaEX4bktcmNfJ4r7ud48TU89CgxqYDE8I2yjcKvF0LrE9e1ZnHvHM6j8W1VmBfL2uitBHhtb/WdvkX1qJ/MCJatGNoFgQgAAEIQAACEIAABCDQ0QQwIjq6e7m4UgQwIkrR4TUIQAACEIAABCAAAQhAAAKNIdB1RsTc3Jy+OjyldDrdGKIctW0IYES0TVfRUAhAAAIQgAAEIAABCECggwhgRHRQZ3Ip1RHAiKiOF1tDAAIQgAAEIAABCEAAAhCoBwGMiHpQ5BhtSQAjoi27jUZDAAIQgAAEIAABCEAAAm1OoOuMiBs3buiR4QsMzWhz4daj+RgR9aDIMSAAAQhAAAIQgAAEIAABCFRHoOuMiI8//hgjojqNdOzWGBEd27VcGAQgAAEIQAACEIAABCDQwgS6zoi4efOmjn/7V9rZ2dGDBw9auGtoWqMJfO1f3m30KTg+BCAAAQhAAAIQgAAEIAABCEQIdJ0RMT8/r4e/+QvdvXtXm5ub2tracv/a42Qyqfv377N0IAPrW1vCff4333k7cjvwFAIQgAAEIAABCEAAAhCAAAQaTaDrjIg7d+7oL4cu6aH/eU4P/c+zOvaPP9VXnnhVvYM/0ZceH9dfff1FHX3sR5nlv/79C8ouZ/Rf/56ldRlk+yrch0e//qK+9N9fUu/gy/ryE6/o2D+85vZ97AmMiEa/wXB8CEAAAhCAAAQgAAEIQAACUQJdZ0REAfAcAhCAAAQgAAEIQAACEIAABCAAgeYRwIhoHmvOBAEIQAACEIAABCAAAQhAAAIQ6HoCGBFdLwEAQAACEIAABCAAAQhAAAIQgAAEmkcAI6J5rDkTBCAAAQhAAAIQgAAEIAABCECg6wlgRHS9BAAAAQhAAAIQgAAEIAABCEAAAhBoHgGMiOax5kwQgAAEIAABCEAAAhCAAAQgAIGuJ4AR0fUSAAAEIAABCEAAAhCAAAQgAAEIQKB5BP5/u2851Vt+BpQAAAAASUVORK5CYII=;" vertex="1" parent="1">
          <mxGeometry x="340" y="190" width="1058" height="248" as="geometry"/>
        </mxCell>
        <mxCell id="jjY2oKexfYFmj5Fb0YtB-5" value="select * from tableA&lt;br style=&quot;font-size: 17px&quot;&gt;WHERE 1=2&lt;br style=&quot;font-size: 17px&quot;&gt;${IF(LEN(&lt;font color=&quot;#ff0000&quot;&gt;sqlFilter&lt;/font&gt;)&amp;gt;0,&lt;font color=&quot;#ff0000&quot;&gt;sqlFilter&lt;/font&gt;,&quot;&quot;}" style="whiteSpace=wrap;html=1;aspect=fixed;fontFamily=Noto Sans TC;fontSize=17;" vertex="1" parent="1">
          <mxGeometry x="30" y="330" width="280" height="280" as="geometry"/>
        </mxCell>
        <mxCell id="jjY2oKexfYFmj5Fb0YtB-6" value="資料集" style="text;html=1;strokeColor=none;fillColor=none;align=center;verticalAlign=middle;whiteSpace=wrap;rounded=0;fontFamily=Noto Sans TC;fontSize=16;" vertex="1" parent="1">
          <mxGeometry x="30" y="300" width="110" height="20" as="geometry"/>
        </mxCell>
        <mxCell id="jjY2oKexfYFmj5Fb0YtB-7" value="SQL WHERE&lt;br&gt;動態查詢器-Basic&lt;br&gt;入門款" style="text;html=1;strokeColor=none;fillColor=none;align=center;verticalAlign=middle;whiteSpace=wrap;rounded=0;fontFamily=Noto Sans TC;fontSize=16;" vertex="1" parent="1">
          <mxGeometry x="60" y="30" width="110" height="80" as="geometry"/>
        </mxCell>
        <mxCell id="jjY2oKexfYFmj5Fb0YtB-10" value="使用CPT，填報模式設計" style="text;html=1;strokeColor=none;fillColor=none;align=center;verticalAlign=middle;whiteSpace=wrap;rounded=0;fontFamily=Noto Sans TC;fontSize=16;" vertex="1" parent="1">
          <mxGeometry x="20" y="100" width="190" height="40" as="geometry"/>
        </mxCell>
        <mxCell id="jjY2oKexfYFmj5Fb0YtB-15" style="edgeStyle=orthogonalEdgeStyle;rounded=0;orthogonalLoop=1;jettySize=auto;html=1;entryX=0;entryY=0.5;entryDx=0;entryDy=0;fontFamily=Noto Sans TC;fontSize=16;" edge="1" parent="1" source="jjY2oKexfYFmj5Fb0YtB-12" target="jjY2oKexfYFmj5Fb0YtB-14">
          <mxGeometry relative="1" as="geometry"/>
        </mxCell>
        <mxCell id="jjY2oKexfYFmj5Fb0YtB-12" value="WHERE 語句 後 預設要加入 AND / OR 判斷" style="text;html=1;strokeColor=none;fillColor=none;align=center;verticalAlign=middle;whiteSpace=wrap;rounded=0;fontFamily=Noto Sans TC;fontSize=16;" vertex="1" parent="1">
          <mxGeometry x="120" y="160" width="190" height="40" as="geometry"/>
        </mxCell>
        <mxCell id="jjY2oKexfYFmj5Fb0YtB-14" value="" style="rounded=0;whiteSpace=wrap;html=1;fontFamily=Noto Sans TC;fontSize=16;fillColor=none;strokeColor=#FF0000;" vertex="1" parent="1">
          <mxGeometry x="370" y="200" width="90" height="30" as="geometry"/>
        </mxCell>
      </root>
    </mxGraphModel>
  </diagram>
</mxfile>
